<svg width="113" height="82" viewBox="0 0 113 82" fill="none" xmlns="http://www.w3.org/2000/svg">
<path d="M110.114 39.2961H100.636C104.577 30.3507 104.151 23.1091 102.66 18.2104C100.104 9.47792 91.4779 0 78.6987 0C75.2909 0 71.8831 0.63896 68.3688 1.91688C62.2987 4.15325 58.2519 6.6026 56.4416 7.88052C54.6312 6.6026 50.6909 4.15325 44.5143 1.91688C41 0.63896 37.4857 0 34.1844 0C21.4052 0 12.7792 9.47792 10.2234 18.2104C8.73247 23.4286 8.2 31.3091 13.2052 41.213H1.7039C0.745455 41.213 0 41.9584 0 42.9169C0 43.8753 0.745455 44.6208 1.7039 44.6208H15.2286C15.761 45.5792 16.4 46.5377 17.1455 47.4961C28.2208 63.4701 52.2883 80.8286 56.6545 81.8935V82C56.6545 82 56.761 82 56.8675 81.8935C56.974 81.8935 57.0805 81.8935 57.187 81.8935V81.787C60.9143 79.9766 84.0234 65.0675 96.1636 47.3896C97.3351 45.7922 98.2935 44.1948 99.1455 42.5974H110.327C111.286 42.5974 112.031 41.852 112.031 40.8935C112.031 39.9351 111.073 39.2961 110.114 39.2961ZM93.0753 45.5792C81.787 62.0857 61.0208 75.3974 56.548 78.2727C51.9688 75.3974 31.3091 61.9792 19.9143 45.5792C19.7013 45.2597 19.4883 44.9403 19.2753 44.6208H34.9299C35.5688 44.6208 36.2078 44.3013 36.5273 43.6623L43.6623 29.6052L54.8442 58.252C55.0571 58.8909 55.8026 59.3169 56.4416 59.3169C56.4416 59.3169 56.4416 59.3169 56.548 59.3169C57.2935 59.3169 57.9325 58.7844 58.1455 58.039L67.9429 24.4935L73.161 41.426C73.374 42.0649 73.9065 42.4909 74.5455 42.5974C75.1844 42.7039 75.8234 42.3844 76.2494 41.852L80.4026 35.7818L83.9169 41.7455C84.2364 42.2779 84.7688 42.5974 85.4078 42.5974H94.9922C94.3532 43.6623 93.7143 44.6208 93.0753 45.5792ZM96.9091 39.2961H86.4727L82.1065 31.8416C81.787 31.3091 81.2545 30.9896 80.6156 30.9896C79.9766 30.9896 79.4442 31.2026 79.1247 31.7351L75.5039 37.0597L69.6468 17.9974C69.4338 17.2519 68.6883 16.826 67.9429 16.7195C67.1974 16.7195 66.452 17.2519 66.239 17.9974L56.3351 52.1818L45.5792 24.7065C45.3662 24.0675 44.7273 23.6416 44.0883 23.6416C43.3429 23.6416 42.8104 23.961 42.4909 24.6L34.0779 41.1065H17.1455C12.8857 33.3325 11.7143 25.8779 13.6312 19.1688C15.8675 11.6078 23.2156 3.51429 34.2909 3.51429C37.2727 3.51429 40.361 4.15325 43.4494 5.21818C51.2234 8.09351 55.3766 11.3948 55.4831 11.3948C56.1221 11.9273 56.974 11.9273 57.613 11.3948C57.613 11.3948 61.7662 8.09351 69.6468 5.21818C72.7351 4.04675 75.8234 3.51429 78.8052 3.51429C89.774 3.51429 97.2286 11.6078 99.4649 19.1688C101.275 25.3455 100.317 32.161 96.9091 39.2961Z" fill="white"/>
</svg>
