<svg width="82" height="82" viewBox="0 0 82 82" fill="none" xmlns="http://www.w3.org/2000/svg">
<path d="M54.4071 35.9256L80.1688 13.3277C80.3505 13.1678 80.4872 12.9615 80.5637 12.7319L80.7346 12.2194C81.545 11.1985 82.0001 10.0778 82.0001 8.88333C82.0001 8.74393 81.9714 8.61 81.9605 8.47333C82.0179 8.15763 81.9509 7.8351 81.7896 7.5522C80.5296 3.16657 73.1222 0 63.5501 0C54.0572 0 46.6923 3.11463 45.342 7.44423C45.3324 7.4579 45.3147 7.46337 45.3051 7.47703L41.0001 14.3937L36.6937 7.47703C36.6855 7.46337 36.6664 7.4579 36.6582 7.44423C35.3079 3.11463 27.943 0 18.4501 0C7.93223 0 9.76142e-05 3.81847 9.76142e-05 8.88333C9.76142e-05 10.0778 0.455198 11.1985 1.26563 12.2194L1.43646 12.7319C1.513 12.9615 1.64966 13.1678 1.83143 13.3277L27.5931 35.9256L0.206464 79.9117C-0.151602 80.4871 -0.034069 81.2374 0.482531 81.6761C0.738098 81.892 1.05243 82 1.36676 82C1.68793 82 2.01046 81.8866 2.26876 81.6611L41.0001 47.6857L79.7314 81.6611C79.9897 81.8866 80.3123 82 80.6334 82C80.9478 82 81.2621 81.892 81.5177 81.6761C82.0343 81.2374 82.1518 80.4871 81.7937 79.9117L54.4071 35.9256ZM63.5501 2.73333C72.4006 2.73333 78.6723 5.69217 79.2135 8.49383C79.2176 8.53483 79.223 8.57583 79.2271 8.59497C79.2271 8.59497 79.2285 8.5977 79.2285 8.59907C79.2408 8.69337 79.2668 8.78903 79.2668 8.88333C79.2668 9.43683 79.0303 10.0026 78.5875 10.5561C78.5561 10.5862 78.5151 10.6053 78.485 10.6395C77.5502 11.7328 75.7462 12.8316 73.2124 13.6557C73.2111 13.6557 73.2097 13.6571 73.207 13.6571C72.9104 13.7528 72.6015 13.8457 72.2845 13.9345C72.1642 13.9673 72.0398 13.9988 71.9168 14.0302C71.6804 14.0931 71.444 14.1559 71.1966 14.2133C70.7975 14.3049 70.3889 14.391 69.9666 14.4703C69.8819 14.4867 69.793 14.499 69.7069 14.514C69.3379 14.5782 68.9621 14.6397 68.5767 14.693C68.4578 14.7094 68.3362 14.7245 68.2159 14.7395C67.8565 14.786 67.4902 14.827 67.1171 14.8625C66.9777 14.8762 66.8397 14.8898 66.6989 14.9008C66.3231 14.9322 65.939 14.9568 65.5495 14.9773C65.4142 14.9841 65.2817 14.9937 65.1436 14.9992C64.6229 15.0197 64.0927 15.0333 63.5501 15.0333C54.2882 15.0333 47.8334 11.793 47.8334 8.88333C47.8334 5.9737 54.2882 2.73333 63.5501 2.73333ZM18.4501 2.73333C27.712 2.73333 34.1668 5.9737 34.1668 8.88333C34.1668 11.793 27.712 15.0333 18.4501 15.0333C17.9075 15.0333 17.3773 15.0197 16.8552 14.9992C16.7172 14.9937 16.5846 14.9841 16.4493 14.9773C16.0612 14.9568 15.6771 14.9322 15.2999 14.9008C15.1592 14.8898 15.0198 14.8762 14.8817 14.8625C14.5086 14.827 14.1424 14.786 13.7829 14.7395C13.6627 14.7245 13.541 14.7094 13.4221 14.693C13.0367 14.6397 12.6609 14.5796 12.2919 14.514C12.2058 14.499 12.117 14.4853 12.0322 14.4703C11.6099 14.3924 11.2013 14.3063 10.8022 14.2133C10.5549 14.1559 10.3198 14.0931 10.082 14.0302C9.959 13.9988 9.83463 13.9673 9.71436 13.9345C9.3973 13.8457 9.08843 13.7541 8.79186 13.6571C8.7905 13.6571 8.78913 13.6557 8.7864 13.6557C6.25396 12.8316 4.44996 11.7328 3.51516 10.6395C3.4851 10.6053 3.4441 10.5862 3.4113 10.5548C2.96986 10.0013 2.73343 9.43683 2.73343 8.88333C2.73343 5.9737 9.1882 2.73333 18.4501 2.73333ZM9.96993 16.8291C11.8067 17.2665 13.8349 17.5603 16.0051 17.6874C16.0926 17.6929 16.1787 17.7011 16.2662 17.7052C16.9823 17.7421 17.708 17.7667 18.4501 17.7667C19.0528 17.7667 19.6459 17.7503 20.2309 17.7257C20.4167 17.7188 20.5971 17.7052 20.7803 17.6956C21.1821 17.6737 21.5811 17.6464 21.9734 17.6122C22.1729 17.5958 22.3711 17.5767 22.5692 17.5562C22.9505 17.5179 23.325 17.4728 23.6954 17.4236C23.8744 17.399 24.0548 17.3772 24.2325 17.3512C24.6835 17.2842 25.1249 17.2091 25.5581 17.1257C25.6388 17.1107 25.7221 17.0984 25.8028 17.082C26.3098 16.9822 26.8018 16.8701 27.2829 16.7485C27.4264 16.713 27.5617 16.6733 27.7024 16.6351C28.0386 16.5449 28.3707 16.4519 28.6933 16.3508C28.8559 16.3002 29.0131 16.2483 29.1716 16.1964C29.4682 16.098 29.7565 15.9955 30.0394 15.8875C30.1857 15.8315 30.3346 15.7768 30.4768 15.7194C30.7911 15.5923 31.0931 15.4597 31.387 15.3231C31.4785 15.2807 31.5756 15.2397 31.6658 15.1973C32.0389 15.0156 32.3956 14.827 32.7345 14.6288C32.8261 14.5755 32.9094 14.5181 32.9983 14.4634C33.2415 14.3145 33.4766 14.1628 33.6994 14.007C33.8087 13.9291 33.9112 13.8512 34.0151 13.7719C34.2064 13.627 34.3882 13.4794 34.5617 13.3291C34.6574 13.2457 34.7517 13.1637 34.8419 13.079C35.0196 12.9109 35.1836 12.7401 35.3394 12.5665C35.4022 12.4968 35.4706 12.4285 35.5307 12.3588C35.7275 12.1237 35.9079 11.8832 36.0637 11.6372L39.3888 16.9781L34.7503 24.4292L29.0568 33.5722L9.96993 16.8291ZM30.5273 36.3861L42.1618 17.7011L45.9365 11.6385C46.0923 11.8845 46.2727 12.1251 46.4695 12.3601C46.5283 12.4312 46.598 12.4995 46.6608 12.5679C46.8166 12.7414 46.9806 12.9136 47.1583 13.0804C47.2485 13.1665 47.3442 13.2485 47.4398 13.3318C47.6134 13.4822 47.7952 13.6298 47.9851 13.7733C48.0904 13.8525 48.1929 13.9318 48.3022 14.0083C48.5236 14.1641 48.7587 14.3158 49.0006 14.4634C49.0908 14.5181 49.1741 14.5769 49.2671 14.6302C49.6046 14.827 49.9613 15.0169 50.3344 15.1973C50.426 15.2424 50.5258 15.2834 50.6187 15.3258C50.9112 15.4625 51.2105 15.5937 51.5221 15.7194C51.6669 15.7768 51.8159 15.8328 51.9649 15.8889C52.245 15.9955 52.532 16.098 52.8272 16.195C52.9871 16.2483 53.147 16.3016 53.311 16.3522C53.6308 16.4519 53.9602 16.5449 54.2937 16.6337C54.4358 16.672 54.5752 16.713 54.7201 16.7485C55.1998 16.8688 55.6904 16.9808 56.1974 17.0806C56.2794 17.097 56.3655 17.1093 56.4489 17.1257C56.8808 17.2077 57.3195 17.2829 57.7677 17.3498C57.9454 17.3758 58.1272 17.3977 58.3076 17.4223C58.6766 17.4715 59.051 17.5166 59.431 17.5548C59.6291 17.5753 59.8273 17.5945 60.0282 17.6109C60.4204 17.645 60.8181 17.671 61.2199 17.6942C61.4031 17.7038 61.5848 17.7175 61.7707 17.7243C62.3543 17.7503 62.9474 17.7667 63.5501 17.7667C64.2922 17.7667 65.0179 17.7421 65.7327 17.7065C65.8201 17.7024 65.9062 17.6942 65.9937 17.6888C68.164 17.5617 70.1921 17.2678 72.0289 16.8305L51.7339 34.6341C51.7339 34.6341 51.7312 34.6341 51.7312 34.6354L40.0981 44.8403L40.0967 44.8417L7.4088 73.5157L30.5273 36.3861ZM43.0733 45.8681L52.3243 37.7528L74.5914 73.5157L43.0733 45.8681Z" fill="white"/>
</svg>
