<svg width="46" height="82" viewBox="0 0 46 82" fill="none" xmlns="http://www.w3.org/2000/svg">
<path d="M43.8276 39.5862C43.0472 39.5862 42.4138 40.2181 42.4138 41V49.4827C42.4138 60.3972 33.5352 69.2758 22.6207 69.2758C11.7062 69.2758 2.82759 60.3972 2.82759 49.4827V41C2.82759 40.2181 2.19421 39.5862 1.41379 39.5862C0.633379 39.5862 0 40.2181 0 41V49.4827C0 61.4788 9.39324 71.2961 21.2069 72.0313V79.1724H14.1379C13.3575 79.1724 12.7241 79.8044 12.7241 80.5862C12.7241 81.368 13.3575 82 14.1379 82H31.1034C31.8839 82 32.5172 81.368 32.5172 80.5862C32.5172 79.8044 31.8839 79.1724 31.1034 79.1724H24.0345V72.0313C35.8481 71.2961 45.2414 61.4774 45.2414 49.4827V41C45.2414 40.2181 44.608 39.5862 43.8276 39.5862Z" fill="white"/>
<path d="M22.6206 65.0345C31.1952 65.0345 38.1723 58.0574 38.1723 49.4828V15.5517C38.1723 6.97707 31.1952 0 22.6206 0C14.0459 0 7.06885 6.97707 7.06885 15.5517V49.4828C7.06885 58.0574 14.0459 65.0345 22.6206 65.0345ZM9.89643 15.5517C9.89643 8.53507 15.6053 2.82759 22.6206 2.82759C29.6358 2.82759 35.3447 8.53507 35.3447 15.5517V49.4828C35.3447 56.4994 29.6358 62.2069 22.6206 62.2069C15.6053 62.2069 9.89643 56.4994 9.89643 49.4828V15.5517Z" fill="white"/>
</svg>
