<svg width="83" height="82" viewBox="0 0 83 82" fill="none" xmlns="http://www.w3.org/2000/svg">
<path d="M16.7681 81.9963C16.4605 81.9963 16.153 81.8977 15.8945 81.702C15.4369 81.357 15.2081 80.7732 15.3047 80.1956L19.8969 52.4409L0.448093 32.7871C0.0439936 32.3774 -0.101601 31.7658 0.0722212 31.2098C0.247529 30.6521 0.712541 30.2455 1.27264 30.1607L28.1482 26.1111L40.1687 0.859535C40.4183 0.332723 40.9353 0 41.4999 0C42.0659 0 42.5829 0.332723 42.831 0.859535L54.85 26.1111L81.7271 30.1607C82.2872 30.2455 82.7507 30.6506 82.9275 31.2098C83.1013 31.7658 82.9572 32.3789 82.5517 32.7871L63.1029 52.444L67.6936 80.1971C67.7886 80.7747 67.5599 81.3585 67.1038 81.7036C66.6462 82.0517 66.0385 82.0964 65.5379 81.8207L41.4999 68.7181L17.4589 81.8207C17.242 81.9377 17.0043 81.9963 16.7681 81.9963ZM4.67777 32.7594L22.5295 50.8019C22.8786 51.1547 23.0391 51.6661 22.9559 52.1652L18.741 77.6401L40.809 65.6127C41.2414 65.3755 41.7569 65.3755 42.1922 65.6127L64.2572 77.6401L60.0439 52.1652C59.9607 51.6661 60.1211 51.1562 60.4703 50.8019L78.322 32.7594L53.6526 29.0424C53.1683 28.97 52.7508 28.6543 52.5339 28.1998L41.4999 5.0232L30.4659 28.2014C30.249 28.6558 29.8315 28.9716 29.3472 29.044L4.67777 32.7594Z" fill="white"/>
</svg>
