<svg>

  <svg xmlns="http://www.w3.org/2000/svg" viewBox="0 0 24 24" id="icon_facebook">
    <path d="M16.403 9H14V7c0-1.032.084-1.682 1.563-1.682h.868a1 1 0 0 0 1-1V3.064c0-.523-.401-.97-.923-1.005A26.154 26.154 0 0 0 14.693 2C11.98 2 10 3.657 10 6.699V9H8a1 1 0 0 0-1 1v2a1 1 0 0 0 1 1l2-.001V21a1 1 0 0 0 1 1h2a1 1 0 0 0 1-1v-8.003l2.174-.001a1 1 0 0 0 .993-.886l.229-1.996A1 1 0 0 0 16.403 9z"/>
  </svg>

  <svg xmlns="http://www.w3.org/2000/svg" viewBox="0 0 32 32" id="icon_vk">
    <path d="M12.8 14.5c-.4-.7-.7-1.5-.7-1.5l-.2-.2c-.1-.1-.3-.1-.3-.1h-2s-.3 0-.4.1c-.1.1 0 .3 0 .3s1.5 3.6 3.3 5.4c1.6 1.7 3.4 1.5 3.4 1.5h.8s.2 0 .4-.2c.1-.1.1-.4.1-.4s0-1.1.5-1.3c.5-.2 1.1 1.1 1.8 1.5.5.4.9.3.9.3h1.8s1-.1.5-.8c0-.1-.3-.6-1.4-1.6-1.1-1.1-1-.9.4-2.7.8-1.1 1.2-1.8 1.1-2.1-.1-.3-.7-.2-.7-.2H20h-.3l-.2.2s-.3.9-.8 1.6c-.9 1.6-1.3 1.6-1.4 1.5-.3-.2-.3-.9-.3-1.4 0-1.5.2-2.1-.4-2.3-.2-.1-.4-.1-1-.1-.7 0-1.4 0-1.7.2-.2.1-.4.4-.3.4.1 0 .4.1.6.3.2.3.2.9.2.9s.1 1.8-.3 2c-.1.4-.5.1-1.3-1.3z"/>
  </svg>

  <svg width="18" height="18" xmlns="http://www.w3.org/2000/svg" id="icon_instagram">
    <path d="M13.128 0H4.872A4.878 4.878 0 0 0 0 4.872v8.256A4.878 4.878 0 0 0 4.872 18h8.256A4.878 4.878 0 0 0 18 13.128V4.872A4.878 4.878 0 0 0 13.128 0zM9 13.922A4.927 4.927 0 0 1 4.078 9 4.927 4.927 0 0 1 9 4.078 4.927 4.927 0 0 1 13.922 9 4.927 4.927 0 0 1 9 13.922zm5.04-8.683a1.456 1.456 0 0 1-1.455-1.454c0-.802.652-1.455 1.454-1.455.802 0 1.455.653 1.455 1.455s-.653 1.454-1.455 1.454z"/>
    <path d="M9 5.134A3.87 3.87 0 0 0 5.134 9 3.871 3.871 0 0 0 9 12.867 3.871 3.871 0 0 0 12.867 9 3.87 3.87 0 0 0 9 5.134zM14.04 3.386a.4.4 0 1 0 0 .799.4.4 0 0 0 0-.8z" />
  </svg>

  <svg xmlns="http://www.w3.org/2000/svg" viewBox="0 0 512 512" id="icon_soundcloud">
    <path d="M432 240a79.66 79.66 0 0 0-16.672 1.76C408.128 169.024 346.592 112 272 112c-8.832 0-16 7.168-16 16v256c0 8.832 7.168 16 16 16h160c44.128 0 80-35.872 80-80 0-44.096-35.872-80-80-80zM208 144c-8.832 0-16 7.168-16 16v224c0 8.832 7.168 16 16 16s16-7.168 16-16V160c0-8.832-7.168-16-16-16zM144 208c-8.832 0-16 7.168-16 16v160c0 8.832 7.168 16 16 16s16-7.168 16-16V224c0-8.832-7.168-16-16-16zM80 208c-8.832 0-16 7.168-16 16v160c0 8.832 7.168 16 16 16s16-7.168 16-16V224c0-8.832-7.168-16-16-16zM16 256c-8.832 0-16 7.168-16 16v96c0 8.832 7.168 16 16 16s16-7.168 16-16v-96c0-8.832-7.168-16-16-16z"/>
  </svg>

  <svg xmlns="http://www.w3.org/2000/svg" viewBox="0 0 310 310" id="icon_youtube">
    <path d="M297.917 64.645c-11.19-13.302-31.85-18.728-71.306-18.728H83.386c-40.359 0-61.369 5.776-72.517 19.938C0 79.663 0 100.008 0 128.166v53.669c0 54.551 12.896 82.248 83.386 82.248h143.226c34.216 0 53.176-4.788 65.442-16.527C304.633 235.518 310 215.863 310 181.835v-53.669c0-29.695-.841-50.16-12.083-63.521zm-98.896 97.765l-65.038 33.991a9.997 9.997 0 0 1-14.632-8.863v-67.764a10 10 0 0 1 14.609-8.874l65.038 33.772a10 10 0 0 1 .023 17.738z"/>
  </svg>

  <svg width="43" height="51" xmlns="http://www.w3.org/2000/svg" id="icon_play">
    <path d="M0 0v51l43-25.497L0 0z"/>
  </svg>

  <svg width="51" height="51" xmlns="http://www.w3.org/2000/svg" id="icon_stop">
    <path  d="M0 0h51v51H0z"/>
  </svg>

  <svg width="51" height="51" xmlns="http://www.w3.org/2000/svg" id="icon_pause">
    <path d="M0 0h15v51H0zM36 0h15v51H36z"/>
  </svg>

</svg>