<?xml version="1.0" encoding="utf-8"?>
<!-- Generator: Adobe Illustrator 23.0.1, SVG Export Plug-In . SVG Version: 6.00 Build 0)  -->
<svg version="1.1" id="Layer_1" xmlns="http://www.w3.org/2000/svg" xmlns:xlink="http://www.w3.org/1999/xlink" x="0px" y="0px"
	 viewBox="0 0 32 32" style="enable-background:new 0 0 32 32;" xml:space="preserve">
<g id="surface1">
	<path d="M12.8,14.5c-0.4-0.7-0.7-1.5-0.7-1.5s-0.1-0.1-0.2-0.2c-0.1-0.1-0.3-0.1-0.3-0.1l-2,0c0,0-0.3,0-0.4,0.1
		c-0.1,0.1,0,0.3,0,0.3s1.5,3.6,3.3,5.4c1.6,1.7,3.4,1.5,3.4,1.5h0.8c0,0,0.2,0,0.4-0.2c0.1-0.1,0.1-0.4,0.1-0.4s0-1.1,0.5-1.3
		c0.5-0.2,1.1,1.1,1.8,1.5c0.5,0.4,0.9,0.3,0.9,0.3l1.8,0c0,0,1-0.1,0.5-0.8c0-0.1-0.3-0.6-1.4-1.6c-1.1-1.1-1-0.9,0.4-2.7
		c0.8-1.1,1.2-1.8,1.1-2.1c-0.1-0.3-0.7-0.2-0.7-0.2l-2.1,0c0,0-0.2,0-0.3,0c-0.1,0.1-0.2,0.2-0.2,0.2s-0.3,0.9-0.8,1.6
		c-0.9,1.6-1.3,1.6-1.4,1.5c-0.3-0.2-0.3-0.9-0.3-1.4c0-1.5,0.2-2.1-0.4-2.3c-0.2-0.1-0.4-0.1-1-0.1c-0.7,0-1.4,0-1.7,0.2
		c-0.2,0.1-0.4,0.4-0.3,0.4c0.1,0,0.4,0.1,0.6,0.3c0.2,0.3,0.2,0.9,0.2,0.9s0.1,1.8-0.3,2C14,16.2,13.6,15.9,12.8,14.5z"/>
</g>
</svg>
