<svg width="41" height="33" viewBox="0 0 41 33" fill="none" xmlns="http://www.w3.org/2000/svg">
<path d="M39.703 11.9648C39.4148 11.7718 39.0545 11.6432 38.6942 11.5145C36.3885 4.6959 29.2549 0 21.3287 0C11.3128 0 3.17048 7.26895 3.17048 16.2104C3.17048 16.8537 3.24257 17.497 3.31459 18.1402C1.81314 19.4035 0.71834 21.0028 0.144107 22.7719L0 23.1578L0.432321 23.0292C0.720536 22.9648 1.00875 22.8361 1.29703 22.7719C2.30584 22.4502 3.38667 22.1286 4.3234 21.8712C6.98948 28.1753 13.7628 32.4209 21.3287 32.4209C31.3445 32.4209 39.4868 25.152 39.4868 16.2104C39.4868 15.7601 39.4868 15.2455 39.4148 14.7952C40.2074 14.5379 40.7118 14.2807 40.8559 13.8946L40.9279 13.8303V13.766C40.9279 13.7016 41 13.6373 41 13.5087C41.0001 12.9941 40.5677 12.4151 39.703 11.9648ZM14.1951 8.16955L14.123 7.5906L14.0509 7.3976L13.8347 6.9473L13.6906 6.81865L13.2583 6.30405L13.1142 6.1754L12.6819 5.6608L12.5378 5.4678C12.5378 5.4678 12.3936 5.2748 12.3936 5.14615C12.7539 4.3099 15.7082 3.92395 19.3831 3.92395C21.761 3.92395 24.355 4.0526 26.8049 4.37425C29.1828 4.6959 31.3444 5.08185 32.7856 5.59645C33.7944 5.9824 34.3708 6.3684 34.3708 6.81865C34.1546 7.26895 33.7944 7.5906 33.5061 7.9122C33.0017 8.42679 32.5694 8.94145 32.2812 9.71334C26.6608 8.7485 20.1757 8.3625 14.2672 8.5555H14.1951C14.2103 8.46796 14.2344 8.38183 14.2672 8.2982L14.1951 8.16955ZM16.2847 13.8303C16.4288 13.5731 16.5729 13.4444 16.7891 13.2514C17.2024 12.8825 17.729 12.6312 18.3022 12.5294C18.8755 12.4276 19.4696 12.4799 20.0096 12.6796C20.5496 12.8792 21.0111 13.2174 21.3358 13.6512C21.6606 14.0851 21.8339 14.5951 21.8339 15.1169C21.8339 15.6387 21.6606 16.1487 21.3358 16.5826C21.0111 17.0164 20.5496 17.3546 20.0096 17.5542C19.4696 17.7539 18.8755 17.8062 18.3022 17.7044C17.729 17.6026 17.2024 17.3513 16.7891 16.9824C16.1406 16.4035 15.7803 15.5028 15.9965 14.6666L16.0686 14.4093C16.1183 14.2102 16.1908 14.0162 16.2847 13.8303ZM13.7628 12.5437C13.5466 12.9297 13.4025 13.5086 13.3304 13.9589C12.3937 13.7659 11.457 13.6373 10.6644 13.4443C7.71007 12.7367 5.83662 12.0291 5.76453 11.3859C7.63799 10.9999 10.8806 10.8069 14.7716 10.8713C14.3392 11.3216 13.979 11.9648 13.7628 12.5437ZM13.6187 18.0759C10.7364 18.0759 8.35852 18.5905 6.34096 19.3624C4.3234 20.1344 2.66607 21.228 1.00881 22.3858C0.864705 22.4502 0.720598 22.4502 0.648513 22.5145C1.32361 20.6063 2.66108 18.9392 4.46751 17.7543C6.55715 16.3391 9.51144 15.2456 13.4745 14.5379H13.6907V14.0234C13.979 14.0234 14.3392 14.0234 14.6275 14.0877C14.9157 14.1521 15.2039 14.2164 15.4922 14.4094C15.276 15.4386 15.5643 16.4678 16.4289 17.2398C17.7259 18.3977 19.9597 18.3977 21.2566 17.2398C22.5536 16.0819 22.5537 14.0877 21.2566 12.9299C19.9596 11.772 17.87 11.772 16.5009 12.8655C16.1406 12.7369 15.7083 12.6082 15.348 12.4796C14.9877 12.4152 14.6275 12.4152 14.2672 12.4152C14.5554 11.8363 14.8436 11.3217 15.2039 10.8714C17.87 10.9357 20.8243 11.0644 23.7786 11.2573C24.1389 11.2573 24.4991 11.3217 24.7874 11.3217C24.4992 12.4796 24.211 13.5731 23.7786 14.6667C23.3463 15.6959 22.9139 16.6608 22.4096 17.4327C22.1213 17.883 21.761 18.269 21.4007 18.7193C21.0404 19.1052 20.6802 19.5555 20.2478 19.9415C18.3023 21.4853 15.9244 21.7425 13.5466 21.3567C13.4745 21.2923 13.4025 21.1636 13.3304 21.0994L13.1142 20.7134V20.5848H12.9701C12.9309 20.5891 12.8912 20.5855 12.8538 20.5744C12.8164 20.5633 12.7823 20.5448 12.7539 20.5204H12.5377C12.3936 20.5204 12.2495 20.456 12.1054 20.456H9.79966C9.62854 20.4499 9.4576 20.4717 9.29525 20.5204H9.07906C8.93495 20.5204 8.71876 20.5848 8.57465 20.5848H8.35846C8.21436 20.5848 7.99816 20.6491 7.85406 20.6491L7.63786 20.7135C7.53697 20.7107 7.43719 20.7329 7.34965 20.7778H7.20554L6.98935 20.8422C6.84524 20.8422 6.70114 20.9065 6.55703 20.9065H6.34084C6.19673 20.9065 6.05262 20.9708 5.98054 20.9708L5.76435 21.0352C5.62024 21.0352 5.54816 21.0995 5.40405 21.0995L5.11602 21.228C4.98241 21.2304 4.85434 21.2761 4.75572 21.3567L4.53953 21.421C3.81899 21.614 3.17048 21.807 2.44988 22C3.74691 21.1637 5.04394 20.3918 6.62918 19.7485C8.57472 18.9766 10.8805 18.462 13.6907 18.462C13.8348 18.462 13.9069 18.3976 13.9069 18.269C13.8348 18.1402 13.7628 18.0759 13.6187 18.0759ZM25.58 13.9589C25.7241 14.0233 25.7962 13.9589 25.8682 13.8946C26.0844 13.5729 26.1564 13.2513 26.3005 12.801C26.3726 12.4151 26.4446 11.9648 26.5167 11.4502C26.8049 11.4502 27.0211 11.5145 27.3093 11.5145C26.7329 15.2455 26.0123 19.1051 22.9859 22.1285C22.1933 22.9648 21.2566 23.5437 20.2478 23.994C18.9507 24.5086 17.0052 24.766 15.5641 24.5086C14.9877 24.38 14.6274 24.1227 14.4112 23.8654C14.2644 23.653 14.1893 23.4073 14.195 23.1578C14.8402 23.3731 15.5238 23.4821 16.2126 23.4795C16.8611 23.4151 17.4375 23.2864 18.3022 22.9649C18.4463 22.9006 18.4463 22.8362 18.4463 22.7076C18.3743 22.5789 18.3022 22.5789 18.1581 22.5789C17.3655 22.8362 16.7891 23.0292 16.2126 23.0292C15.6361 23.0292 14.9876 22.9649 14.1229 22.7076C13.8347 22.5789 13.6185 22.3859 13.5465 22.193C13.4745 22.0275 13.4745 21.8439 13.5465 21.6784C16.4288 22.193 18.8066 21.6784 20.6801 20.1988C20.8242 20.1345 20.8963 20.0058 21.0404 19.9415C21.8014 19.2503 22.4557 18.4715 22.9859 17.6257V17.4327V17.2397L23.058 17.1753L23.1301 17.0467L23.2022 16.9823C23.2743 16.918 23.2743 16.8537 23.3463 16.725C23.6345 16.1461 23.9948 15.4385 24.211 14.7309C24.6086 13.6749 24.9453 12.6013 25.2198 11.5145L25.2919 11.3215C25.5801 11.3215 25.7963 11.3859 26.0845 11.3859C26.0124 11.9005 25.9404 12.3508 25.8683 12.6724C25.7962 13.0584 25.6521 13.38 25.508 13.7017C25.4359 13.766 25.4359 13.8946 25.58 13.9589ZM28.5343 25.9881L28.6784 27.6606L20.608 31.9706H20.536L20.7522 31.7776C22.3375 30.1051 23.9947 28.4969 25.4359 26.6957C26.0844 25.8595 26.7329 25.0875 27.3814 24.187L27.4535 24.1226V23.9296L27.5256 23.8653L27.5977 23.8009C28.1022 23.0934 28.6066 22.3214 29.1108 21.4851C29.2549 21.2921 29.399 21.0992 29.4711 20.8419L29.8314 21.8068L29.9755 22.3214L31.1284 25.6664L28.6786 25.7307H28.4622L28.5343 25.9881ZM14.8436 28.6256L14.6995 27.7893L16.3568 26.6958L15.8523 29.5262L15.5641 31.07C15.492 31.07 15.42 31.0057 15.2759 31.0057L14.8436 28.6256ZM14.8436 30.877C14.2672 30.684 13.7628 30.4267 13.1863 30.2338L14.4833 29.1403L14.8436 30.877ZM16.2847 29.6548L16.645 29.3976L16.8612 29.7835L16.4289 31.3273C16.2848 31.2631 16.1407 31.2631 15.9966 31.1987L16.2847 29.6548ZM16.3568 29.1403L16.645 27.6607C16.7171 27.725 16.7891 27.8537 16.8612 27.918C17.0053 28.111 17.2215 28.2396 17.4376 28.4326L16.3568 29.1403ZM18.2303 29.9765L18.6626 29.2687L21.0404 30.8126C20.7522 31.0699 20.536 31.3272 20.2478 31.5845C20.1037 31.7132 20.0316 31.8418 19.8875 31.9062C19.3831 31.8419 18.9508 31.8419 18.4464 31.7775L18.2303 29.9765ZM18.3744 28.5613C19.0949 28.497 19.7434 28.3683 20.3919 28.2396C22.1934 27.7893 23.7065 27.0817 25.0036 26.0526C25.3816 25.7698 25.7423 25.4691 26.0844 25.152C25.7241 25.6023 25.4359 26.0526 25.0756 26.4385C24.7153 26.8244 24.355 27.2747 23.9947 27.6607C23.2021 28.5613 22.3374 29.4618 21.4728 30.3625H21.2566L18.3744 28.5613ZM29.3269 15.9531C29.1107 17.304 29.1107 18.5905 29.3269 20.3274C28.5343 21.614 27.7416 22.8361 26.8049 23.8654C26.0844 24.6374 25.3638 25.345 24.4991 25.9882C23.2742 26.8244 21.9051 27.532 20.3199 27.918C19.5184 28.1143 18.6982 28.2435 17.87 28.3039L17.2215 27.725C17.0313 27.5481 16.8622 27.3541 16.717 27.146C16.717 27.0174 16.7891 26.953 16.7891 26.8244C16.9332 26.2454 17.0053 25.6665 16.9332 25.0875H17.7259C17.9421 25.0875 18.0862 25.0875 18.2303 25.0232H18.4465C18.5906 25.0232 18.8068 24.9588 18.9509 24.9588L19.1671 24.8945C19.3112 24.8301 19.5274 24.8301 19.6715 24.7658L19.8877 24.7015L20.32 24.5085L20.5362 24.4441L20.9685 24.2511L21.1847 24.1225C21.3288 24.0581 21.4729 23.9295 21.617 23.8652L21.8332 23.7365C21.9773 23.6722 22.0494 23.5435 22.1935 23.4792L22.4097 23.2862C22.5538 23.2219 22.6259 23.0932 22.77 23.0289L22.9862 22.8359C23.1303 22.7073 23.2024 22.6429 23.2744 22.5143L23.4906 22.257C23.6347 22.1283 23.7068 21.9997 23.8509 21.871L24.0671 21.6137C25.5802 19.7482 26.7331 17.1108 27.3817 13.8945C27.5258 13.1869 27.6699 12.4793 27.742 11.7074C28.6787 11.7717 29.6154 11.9004 30.4801 12.029C29.9753 13.38 29.5431 14.6666 29.3269 15.9531ZM21.4728 31.9706L29.0386 27.918L29.1827 27.8536V27.725L29.0386 26.1811L31.4885 26.1168H31.7767L31.7046 25.7951L30.696 22.9005L35.1635 25.9882C31.993 29.5905 27.0211 31.9063 21.4728 31.9706ZM35.2358 15.1169C33.7227 15.2456 31.9212 15.3099 29.9037 15.3099C30.1199 14.2807 30.5522 13.1871 30.9845 11.9006C35.0917 12.4151 38.5504 13.0585 40.3518 13.8303C39.9912 14.4093 38.1178 14.8596 35.2358 15.1169ZM31.2007 11.5146L30.9845 11.4503C28.7507 11.0643 26.2287 10.9357 23.923 10.807C16.5732 10.2924 9.22348 10.2281 5.8368 10.9357C6.1971 10.0994 8.07056 9.5848 10.5204 9.26315C11.5293 9.1345 12.6101 9.07015 13.6909 9.00585H13.835C20.3921 8.74856 29.1109 9.26315 36.1004 11C37.4695 11.386 38.6224 11.772 39.415 12.2222C40.0635 12.6082 40.4958 12.9942 40.4958 13.3801C38.6942 12.6724 35.2361 12.0293 31.2007 11.5146Z" fill="#1C1C1C"/>
<path d="M18.4421 15.2783C18.7536 15.2783 18.9095 15.1885 18.9614 15.0088C19.1691 15.0537 19.5326 15.0537 19.6884 15.1436C19.5326 15.4131 18.5979 15.5029 18.2863 15.5029C18.1824 15.5029 18.1305 15.5479 18.1305 15.6377C18.1305 15.7276 18.1824 15.7725 18.2863 15.7725C18.7017 15.7725 20 15.6377 20 15.1435V15.0986C20 14.7842 19.7923 14.5596 19.5326 14.3799C19.221 14.2002 18.8056 14.1103 18.3382 14.0205C18.2344 14.0205 18.1824 14.0654 18.1824 14.1553C18.1824 14.2451 18.2344 14.2901 18.3382 14.2901C18.7536 14.335 19.1172 14.4248 19.3768 14.5596C19.4807 14.6494 19.5845 14.7393 19.6365 14.8291C19.5326 14.8291 19.4807 14.7842 19.3768 14.7842C19.001 14.7121 18.6188 14.667 18.2344 14.6494C17.8709 14.6494 17.9228 15.2783 18.4421 15.2783Z" fill="#1C1C1C"/>
</svg>
